<?xml version="1.0" encoding="utf-8"?>
<!-- Generator: Adobe Illustrator 27.5.0, SVG Export Plug-In . SVG Version: 6.00 Build 0)  -->
<svg version="1.1" id="Layer_1" xmlns="http://www.w3.org/2000/svg" xmlns:xlink="http://www.w3.org/1999/xlink" x="0px" y="0px"
	 viewBox="0 0 4000 4000" style="enable-background:new 0 0 4000 4000;" xml:space="preserve">
<g>
	<g>
		<rect style="fill:none;" width="4000" height="4000"/>
	</g>
	<g>
		<g style="opacity:0.2;">
			<ellipse style="fill:rgba(255,217,102,0.1);" cx="1990.716" cy="3494.668" rx="871.102" ry="121.633"/>
		</g>
		<g>
			<g>
				<g>
					<g>
						<path style="fill:#FFFFFF;" d="M2658.687,1116.282c0,0,154.765,58.674,170.67,87.324
							c29.485,53.116,24.01,365.313-57.559,446.708c-31.937,31.871-266.613,61.652-266.613,61.652L2658.687,1116.282z"/>
					</g>
					<g>
						<path style="fill:#c8d0dc;" d="M2505.187,1711.975c0,0,234.676-29.798,266.596-61.677
							c31.834-31.748,52.112-98.736,63.163-171.719c-2.596,2.337-85.477,73.875-250.823-71.539
							c-0.086-0.082-0.214-0.169-0.301-0.255L2505.187,1711.975z"/>
					</g>
					<g>
						<path style="fill:#FFFFFF;" d="M1474.954,1711.975c0,0-234.672-29.798-266.593-61.677
							c-31.838-31.748-52.112-98.736-63.163-171.719l-0.045-0.045c-17.3-113.913-12.326-242.534,5.657-274.923
							c15.892-28.646,170.654-87.349,170.654-87.349l74.855,290.524L1474.954,1711.975z"/>
					</g>
					<g>
						<path style="fill:#c8d0dc;" d="M1474.954,1711.975c0,0-234.672-29.798-266.593-61.677
							c-31.838-31.748-52.112-98.736-63.163-171.719c2.592,2.337,85.477,73.875,250.819-71.539c0.09-0.082,0.214-0.169,0.3-0.255
							L1474.954,1711.975z"/>
					</g>
					<g>
						<path style="fill:#0c1222;" d="M2477.703,1736.191l166.797-647.285l21.479,8.145c48.65,18.443,163.711,64.771,181.365,96.572
							c32.974,59.404,28.75,381.68-61.018,471.255c-34.246,34.175-221.863,60.303-278.55,67.495L2477.703,1736.191z
							 M2672.822,1143.857l-140.095,543.662c101.75-14.37,209.402-36.655,224.539-51.763
							c31.47-31.401,55.566-114.058,64.458-221.104c8.599-103.53-0.486-183.291-10.352-201.06
							C2802.698,1201.015,2736.514,1169.267,2672.822,1143.857z"/>
					</g>
					<g>
						<path style="fill:#0c1222;" d="M1502.456,1736.191l-30.073-3.818c-56.685-7.192-244.302-33.32-278.552-67.495
							c-89.766-89.58-93.987-411.851-61.013-471.255c17.654-31.802,132.715-78.13,181.365-96.572l21.479-8.145L1502.456,1736.191z
							 M1307.339,1143.857c-63.694,25.41-129.89,57.183-138.699,69.98c-9.717,17.524-18.801,97.285-10.203,200.815
							c8.892,107.046,32.986,189.702,64.453,221.104c15.139,15.107,122.791,37.393,224.541,51.763L1307.339,1143.857z"/>
					</g>
					<g>
						<path style="fill:#FFFFFF;" d="M2356.931,2901.065h-737.907c-97.717,0-177.662-79.944-177.662-177.657v-720.187
							c0-97.713,79.944-177.657,177.662-177.657h737.907c97.713,0,177.662,79.944,177.662,177.657v720.187
							C2534.593,2821.121,2454.644,2901.065,2356.931,2901.065"/>
					</g>
					<g>
						<path style="fill:#0c1222;" d="M2356.931,2923.29h-737.908c-110.22,0-199.888-89.668-199.888-199.883v-720.186
							c0-110.215,89.668-199.883,199.888-199.883h737.908c110.22,0,199.888,89.668,199.888,199.883v720.186
							C2556.819,2833.622,2467.151,2923.29,2356.931,2923.29z M1619.023,1847.792c-85.706,0-155.435,69.726-155.435,155.43v720.186
							c0,85.703,69.729,155.43,155.435,155.43h737.908c85.706,0,155.432-69.727,155.432-155.43v-720.186
							c0-85.703-69.727-155.43-155.432-155.43H1619.023z"/>
					</g>
					<g>
						<path style="fill:#FFFFFF;" d="M3081.029,1798.817c-2.674,34.846-13.247,85.078-119.718,136.874
							c-173.529,219.03-361.334,329.204-591.23,384.208c-24.598,5.883-49.698,11.149-75.323,15.839l-87.793-240.423l-41.469-113.547
							c125.889-22.051,233.512-67.47,320.935-117.085c133.788-75.903,220.388-161.681,253.012-188.998
							c49.903-79.853,160.364-98.736,210.555-65.084c10.203,6.829,23.121,16.374,36.821,28.017
							C3031.907,1676.878,3085.719,1737.724,3081.029,1798.817"/>
					</g>
					<g>
						<path style="fill:#c8d0dc;" d="M2486.428,1864.683c-66.153,103.509-163.816,184.884-279.465,230.632l-41.469-113.547
							C2291.383,1959.717,2399.005,1914.298,2486.428,1864.683"/>
					</g>
					<g>
						<path style="fill:#c8d0dc;" d="M1809.219,1981.768l-40.56,111.037c-110.671-45.213-204.43-123.215-269.304-221.91
							C1584.757,1918.083,1688.558,1960.622,1809.219,1981.768"/>
					</g>
					<g>
						<path style="fill:#c8d0dc;" d="M2341.04,2020.645c-97.795,72.654-218.948,115.645-350.144,115.645
							c-133.376,0-256.386-44.431-355.04-119.307c1.028-2.139,2.057-4.279,3.085-6.418c0,0,162.874-240.711,348.663-240.711
							s348.622,240.711,348.622,240.711C2337.868,2013.939,2339.476,2017.312,2341.04,2020.645"/>
					</g>
					<g>
						<path style="fill:#c8d0dc;" d="M2327.738,2158.217l42.333,161.681c229.891-55.004,417.692-165.178,591.226-384.208
							c106.471-51.795,117.04-102.028,119.718-136.873c4.686-61.093-49.121-121.94-94.215-160.2
							c-54.424-2.057-108.935,3.332-134.853,28.099c-32.336,30.855,5.677,101.287,6.665,133.212
							c2.633,85.366-43.732,188.998-157.69,276.627C2532.081,2206.351,2327.738,2158.217,2327.738,2158.217"/>
					</g>
					<g>
						<path style="fill:#0c1222;" d="M2163.354,1969.629c26.618-5.262,53.124-11.058,79.215-18.476
							c26.066-7.45,51.972-15.485,77.352-25.026c50.886-18.702,100.106-41.811,147.417-68.285
							c47.283-26.556,92.491-56.745,135.705-89.562c21.677-16.337,42.708-33.513,63.471-51.08
							c10.392-8.767,20.62-17.748,30.896-26.774c10.351-9.014,20.434-18.106,31.472-27.362l-3.394,3.9
							c8.228-13.062,18.151-25.017,29.325-35.557c11.194-10.524,23.713-19.496,36.94-27.054
							c26.618-14.848,56.226-23.981,86.9-25.774c15.329-0.889,30.975,0.082,46.538,3.863c7.767,1.938,15.514,4.583,23.031,8.249
							c1.868,0.975,3.748,1.88,5.587,2.946l5.435,3.357c3.052,2.057,6.06,4.151,9.03,6.266
							c23.606,17.057,45.497,35.989,65.491,57.312c19.863,21.34,38.042,45.11,50.726,73.11c6.15,14.049,10.968,29.181,12.544,45.262
							c0.543,3.982,0.531,8.068,0.699,12.116c-0.132,3.97-0.202,8.405-0.572,11.955c-0.662,7.496-1.74,15.321-3.612,23.08
							c-3.641,15.576-10.565,30.612-19.533,43.559c-8.981,12.988-19.731,24.174-31.176,33.957
							c-22.993,19.529-48.442,34.208-74.34,46.879l5.702-4.579c-41.766,52.536-87.069,102.521-136.75,148.08
							c-49.636,45.567-103.71,86.584-161.64,121.355c-57.88,34.837-119.496,63.348-183.078,85.707
							c-63.594,22.421-129.053,38.779-195.029,50.849c-8.94,1.641-17.513-4.283-19.151-13.219
							c-1.637-8.94,4.283-17.513,13.222-19.155h0.004c64.603-11.824,128.362-27.782,190.027-49.521
							c61.665-21.685,121.154-49.236,177.051-82.869c55.93-33.583,108.19-73.197,156.349-117.406
							c48.2-44.201,92.352-92.882,133.196-144.266c1.572-1.975,3.579-3.53,5.702-4.579c24.298-11.848,47.636-25.511,67.318-42.271
							c9.808-8.368,18.542-17.588,25.482-27.618c6.92-10.059,11.877-20.879,14.629-32.55c1.411-5.838,2.275-11.906,2.847-18.336
							c0.16-1.662,0.259-3.229,0.28-4.624l0.16-4.365c-0.165-2.937-0.09-5.863-0.527-8.82c-1.119-11.807-4.826-23.693-9.865-35.228
							c-10.413-23.084-26.494-44.534-44.703-64.022c-18.258-19.505-38.882-37.339-60.612-53.034
							c-2.723-1.942-5.455-3.843-8.203-5.694l-3.497-2.152c-1.181-0.691-2.464-1.279-3.69-1.942
							c-5.056-2.456-10.602-4.381-16.395-5.833c-11.638-2.835-24.211-3.707-36.779-2.962c-50.52,3.016-100.715,30.242-127.152,72.97
							c-0.88,1.419-1.946,2.654-3.147,3.69l-0.251,0.214c-9.931,8.524-20.175,17.949-30.444,27.12
							c-10.306,9.207-20.772,18.324-31.365,27.313c-21.121,18.057-42.996,35.302-65.318,51.948
							c-44.74,33.171-91.771,63.335-140.773,89.916c-49.064,26.461-100.061,49.438-152.7,67.856
							c-52.561,18.661-106.87,32.176-161.784,41.478c-6.722,1.14-13.091-3.39-14.23-10.108c-1.115-6.603,3.229-12.864,9.754-14.165
							L2163.354,1969.629z"/>
					</g>
					<g>
						<path style="fill:#FFFFFF;" d="M2789.327,1620.022l156.333,4.896c15.345-16.909,31.558-43.032,43.526-71.09
							c22.713-53.441,29.913-113.794-13.984-130.744c-40.198-15.51-83.802,35.957-119.434,90.508
							C2825.576,1559.834,2801.093,1608.256,2789.327,1620.022"/>
					</g>
					<g>
						<path style="fill:#c8d0dc;" d="M2789.327,1620.022l156.333,4.896c15.345-16.909,31.558-43.032,43.526-71.09
							c-41.218,6.582-94.413,3.374-133.418-40.235C2825.576,1559.834,2801.093,1608.256,2789.327,1620.022"/>
					</g>
					<g>
						<path style="fill:#0c1222;" d="M2945.662,1645.483c-4.932,0-9.878-1.763-13.818-5.342c-8.413-7.637-9.041-20.644-1.404-29.058
							c32.197-35.469,63.743-109.292,54.626-147.769c-2.59-10.933-7.913-17.417-17.253-21.025
							c-39.082-15.049-100.867,90.513-130.576,141.25c-16.401,28.013-25.334,43.003-33.369,51.021
							c-8.037,8.022-21.067,8.018-29.089-0.029c-8.027-8.042-8.015-21.064,0.027-29.092c4.651-4.639,16.487-24.854,26.929-42.69
							c43.491-74.272,109.221-186.504,180.894-158.838c22.065,8.516,36.75,25.781,42.471,49.917
							c13.813,58.311-29.192,146.348-64.199,184.912C2956.841,1643.207,2951.262,1645.483,2945.662,1645.483z"/>
					</g>
					<g>
						<path style="fill:#FFFFFF;" d="M2861.447,1672.845c13.124,69.033,73.805,210.844,159.871,190.52
							c44.226-10.491,65.248-44.966,69.65-87.464c1.646-16.004,0.987-33.2-1.728-50.685
							c-13.576-88.575-78.619-184.185-147.693-174.023c-8.063,1.193-17.073,3.538-26.165,7.24
							c-9.503,3.908-19.048,9.421-27.478,16.868C2866.754,1593.857,2852.231,1624.506,2861.447,1672.845"/>
					</g>
					<g>
						<path style="fill:#c8d0dc;" d="M2861.447,1672.845c13.124,69.033,73.805,210.844,159.871,190.52
							c44.226-10.491,65.248-44.966,69.65-87.464c-14.847,13.576-34.805,25.26-60.102,26.7
							c-63.895,3.62-95.902-55.663-95.902-55.663s62.331-43.032,17.854-116.18c-18.389-30.279-44.76-46.735-64.915-55.457
							C2866.754,1593.857,2852.231,1624.506,2861.447,1672.845"/>
					</g>
					<g style="opacity:0.3;">
						<g>
							<g>
								<path style="fill:#FFFFFF;" d="M2860.483,1624.278c10.659-21.944,29.115-35.43,47.484-42.995
									c9.075-3.715,18.093-6.039,26.165-7.22c69.07-10.174,134.092,85.419,147.701,173.994c3.62,23.376,3.637,46.274-0.819,66.618
									c11.309-25.1,13.28-56.802,8.24-89.476c-13.601-88.575-78.623-184.168-147.693-173.994
									c-8.072,1.181-17.094,3.505-26.169,7.22C2891.313,1568.357,2867.139,1588.375,2860.483,1624.278"/>
							</g>
						</g>
					</g>
					<g>
						<path style="fill:#0c1222;" d="M3004.465,1885.942c-18.528,0.005-36.726-5.732-54.333-17.153
							c-60.164-39.028-98.726-138.555-108.901-192.124c-7.483-39.39-1.821-72.651,16.824-98.857
							c25.181-35.386,64.7-44.624,80.525-46.953l0,0c80.862-11.885,150.874,84.971,169.365,181.553
							c17.129,89.463-14.26,154.98-81.914,170.977C3018.804,1885.092,3011.609,1885.942,3004.465,1885.942z M2951.736,1571.034
							c-2.395,0-4.78,0.171-7.166,0.522l0,0c-8.274,1.216-36.545,6.987-52.996,30.103c-11.897,16.719-15.237,39.375-9.927,67.329
							c9.568,50.361,44.084,134.932,90.872,165.283c14.817,9.609,29.219,12.578,44.043,9.072
							c66.189-15.649,55.752-98.257,50.977-123.198C3053.552,1647.084,3002.144,1571.034,2951.736,1571.034z M2941.575,1551.205
							h0.049H2941.575z"/>
					</g>
					<g>
						<path style="fill:#FFFFFF;" d="M2738.031,1692.985c1.329-73.394,61.797-151.531,133.813-108.129
							c61.352,36.977,80.454,114.51,46.361,134.347c-40.535,23.581-81.149-35.344-81.149-35.344"/>
					</g>
					<g>
						<path style="fill:#0c1222;" d="M2729.803,1692.837c-2.283-10.458-2.465-21.265-1.374-31.945
							c1.086-10.697,3.653-21.278,7.516-31.452c7.965-20.167,20.27-39.474,38.606-54.046c9.146-7.212,19.846-13.144,31.641-16.526
							c11.754-3.448,24.466-4.196,36.45-2.328c12.025,1.806,23.24,6.068,33.188,11.601c9.886,5.533,18.747,11.725,27.07,19.003
							c16.481,14.518,30.16,32.217,39.322,52.664c4.53,10.24,7.94,21.191,9.359,32.974c0.728,5.887,0.926,11.993,0.288,18.303
							c-0.625,6.294-2.032,12.852-4.846,19.332c-2.818,6.438-7.179,12.819-13.029,17.802c-2.818,2.431-6.319,4.751-9.29,6.154
							c-2.975,1.531-6.2,2.748-9.483,3.777c-6.615,1.995-13.753,2.674-20.484,2.02c-6.751-0.716-13.012-2.633-18.624-5.143
							c-11.207-5.142-19.986-12.449-27.375-20.352c-7.422-8.026-13.42-16.366-18.456-26.141c-2.098-4.069-0.502-9.063,3.563-11.157
							c3.205-1.654,6.994-1.008,9.479,1.333l0.506,0.485c13.066,12.367,28.465,24.565,42.823,28.662
							c3.526,1.041,6.903,1.506,9.96,1.374c3.057-0.033,5.834-0.617,8.516-1.74c6.217-2.933,8.438-4.9,10.544-10.273
							c2.082-5.138,2.477-12.576,1.53-20.233c-1.003-7.693-3.279-15.728-6.57-23.458c-6.517-15.542-16.867-30.016-29.74-41.486
							c-6.377-5.694-13.556-11.005-20.854-14.938c-7.241-3.871-14.732-6.455-22.146-7.434c-14.856-2.012-29.242,3.147-41.708,13.078
							c-12.445,9.952-22.915,24.005-30.736,39.622c-3.991,7.8-7.525,15.954-10.717,24.396c-3.184,8.463-5.817,17.209-8.475,26.367
							l-0.078,0.255c-1.296,4.484-5.99,7.068-10.47,5.764C2732.629,1698.259,2730.448,1695.758,2729.803,1692.837"/>
					</g>
					<g>
						<path style="fill:#0c1222;" d="M2732.695,2178.808c-10.01,0-18.784-7.319-20.315-17.52
							c-32.778-218.325-178.777-312.598-180.249-313.525c-9.597-6.045-12.507-18.73-6.484-28.34
							c6.028-9.604,18.672-12.544,28.296-6.538c6.655,4.15,163.406,104.395,199.121,342.3c1.687,11.23-6.052,21.709-17.288,23.394
							C2734.741,2178.735,2733.711,2178.808,2732.695,2178.808z"/>
					</g>
					<g>
						<path style="fill:#FFFFFF;" d="M1809.211,1981.768l-129.262,353.97c-25.63-4.694-50.726-9.956-75.328-15.843
							c-229.891-55.005-417.7-165.174-591.226-384.204c-106.471-51.796-117.048-102.028-119.718-136.874
							c-4.694-61.093,49.117-121.94,94.207-160.2c13.7-11.643,26.622-21.187,36.825-28.016
							c50.191-33.653,160.648-14.769,210.551,65.084C1289.236,1720.857,1490.745,1925.941,1809.211,1981.768"/>
					</g>
					<g>
						<path style="fill:#c8d0dc;" d="M1809.219,1981.768l-40.56,111.037c-110.671-45.213-204.43-123.215-269.304-221.91
							C1584.757,1918.083,1688.558,1960.622,1809.219,1981.768"/>
					</g>
					<g>
						<path style="fill:#c8d0dc;" d="M1646.952,2158.217l-42.333,161.681c-229.891-55.004-417.696-165.178-591.226-384.208
							c-106.471-51.795-117.044-102.028-119.718-136.873c-4.69-61.093,49.121-121.94,94.211-160.2
							c54.428-2.057,108.939,3.332,134.858,28.099c32.336,30.855-5.677,101.287-6.665,133.212
							c-2.633,85.366,43.732,188.998,157.69,276.627C1442.608,2206.351,1646.952,2158.217,1646.952,2158.217"/>
					</g>
					<g>
						<path style="fill:#0c1222;" d="M1807.073,1993.942c-54.918-9.302-109.227-22.812-161.784-41.477
							c-52.643-18.418-103.64-41.395-152.696-67.857c-49.01-26.581-96.038-56.745-140.782-89.916
							c-22.319-16.645-44.197-33.891-65.314-51.948c-10.594-8.989-21.064-18.106-31.365-27.309
							c-10.269-9.17-20.512-18.595-30.444-27.124l-0.193-0.169c-1.271-1.086-2.366-2.39-3.205-3.735
							c-26.433-42.728-76.632-69.955-127.152-72.97c-12.572-0.745-25.145,0.128-36.779,2.966
							c-5.792,1.448-11.338,3.373-16.398,5.834c-1.222,0.658-2.505,1.246-3.69,1.942l-3.493,2.148
							c-2.748,1.851-5.48,3.756-8.203,5.694c-21.73,15.695-42.354,33.529-60.612,53.034c-18.209,19.488-34.29,40.939-44.703,64.027
							c-5.044,11.531-8.746,23.417-9.869,35.228c-0.428,2.954-0.358,5.879-0.523,8.816l0.161,4.365
							c0.021,1.395,0.119,2.962,0.28,4.628c0.572,6.43,1.436,12.494,2.847,18.336c2.752,11.667,7.706,22.491,14.634,32.546
							c6.936,10.03,15.67,19.25,25.478,27.622c19.681,16.756,43.02,30.423,67.318,42.271c2.267,1.103,4.221,2.732,5.702,4.575
							c40.844,51.384,84.992,100.065,133.196,144.266c48.159,44.209,100.415,83.827,156.349,117.406
							c55.897,33.636,115.39,61.184,177.051,82.869c61.661,21.742,125.42,37.701,190.027,49.524
							c8.94,1.633,14.864,10.207,13.227,19.147c-1.638,8.944-10.211,14.86-19.151,13.227h-0.004
							c-65.973-12.075-131.435-28.428-195.025-50.853c-63.578-22.356-125.198-50.87-183.082-85.708
							c-57.921-34.771-112-75.784-161.632-121.355c-49.689-45.555-94.993-95.544-136.754-148.08l5.702,4.579
							c-25.898-12.671-51.351-27.346-74.344-46.879c-11.437-9.783-22.191-20.965-31.172-33.953
							c-8.973-12.947-15.892-27.984-19.529-43.563c-1.872-7.759-2.954-15.58-3.616-23.08c-0.37-3.55-0.444-7.985-0.572-11.955
							c0.165-4.044,0.156-8.134,0.695-12.116c1.58-16.082,6.393-31.213,12.548-45.259c12.683-28.004,30.859-51.771,50.726-73.11
							c19.994-21.327,41.889-40.255,65.491-57.316c2.97-2.115,5.978-4.209,9.026-6.266l5.435-3.353
							c1.839-1.069,3.723-1.97,5.587-2.95c7.521-3.666,15.263-6.307,23.03-8.249c15.563-3.776,31.213-4.748,46.542-3.863
							c30.674,1.798,60.283,10.927,86.896,25.774c13.231,7.562,25.75,16.53,36.948,27.054c11.165,10.54,21.093,22.5,29.321,35.557
							l-3.398-3.9c11.038,9.257,21.125,18.349,31.476,27.367c10.277,9.022,20.5,18.003,30.896,26.77
							c20.763,17.567,41.794,34.743,63.467,51.08c43.218,32.818,88.427,63.006,135.709,89.562
							c47.311,26.478,96.531,49.586,147.418,68.288c25.375,9.536,51.285,17.575,77.348,25.026
							c26.091,7.414,52.602,13.21,79.219,18.472l0.193,0.041c6.685,1.321,11.034,7.813,9.709,14.502
							C1819.942,1990.737,1813.635,1995.048,1807.073,1993.942"/>
					</g>
					<g>
						<path style="fill:#FFFFFF;" d="M1185.358,1620.022l-156.333,4.896c-15.341-16.909-31.555-43.032-43.526-71.09
							c-22.709-53.441-29.909-113.794,13.988-130.744c40.194-15.51,83.802,35.957,119.434,90.508
							C1149.114,1559.834,1173.596,1608.256,1185.358,1620.022"/>
					</g>
					<g>
						<path style="fill:#c8d0dc;" d="M1185.358,1620.022l-156.333,4.896c-15.341-16.909-31.555-43.032-43.526-71.09
							c41.222,6.582,94.417,3.374,133.422-40.235C1149.114,1559.834,1173.596,1608.256,1185.358,1620.022"/>
					</g>
					<g>
						<path style="fill:#0c1222;" d="M1029.026,1645.483c-5.601,0-11.179-2.275-15.239-6.748
							c-35.005-38.564-78.01-126.602-64.194-184.907c5.718-24.141,20.403-41.401,42.463-49.917
							c71.677-27.69,137.407,84.566,180.901,158.843c10.442,17.832,22.278,38.047,26.929,42.686
							c8.042,8.027,8.054,21.05,0.027,29.092c-8.022,8.037-21.047,8.057-29.089,0.029c-8.035-8.017-16.968-23.008-33.369-51.021
							c-29.712-50.742-91.565-156.255-130.581-141.25c-9.338,3.608-14.658,10.088-17.249,21.021
							c-9.119,38.481,22.429,112.305,54.626,147.778c7.634,8.408,7.004,21.421-1.406,29.053
							C1038.904,1643.72,1033.958,1645.483,1029.026,1645.483z"/>
					</g>
					<g>
						<path style="fill:#FFFFFF;" d="M1113.242,1672.845c-13.124,69.033-73.806,210.844-159.871,190.52
							c-44.226-10.491-65.252-44.966-69.65-87.464c-1.646-16.004-0.987-33.2,1.728-50.685
							c13.576-88.575,78.615-184.185,147.689-174.023c8.063,1.193,17.077,3.538,26.169,7.24c9.499,3.908,19.048,9.421,27.478,16.868
							C1107.935,1593.857,1122.453,1624.506,1113.242,1672.845"/>
					</g>
					<g>
						<path style="fill:#c8d0dc;" d="M1113.242,1672.845c-13.124,69.033-73.806,210.844-159.871,190.52
							c-44.226-10.491-65.252-44.966-69.65-87.464c14.848,13.576,34.805,25.26,60.102,26.7c63.895,3.62,95.902-55.663,95.902-55.663
							s-62.331-43.032-17.855-116.18c18.39-30.279,44.761-46.735,64.915-55.457
							C1107.935,1593.857,1122.453,1624.506,1113.242,1672.845"/>
					</g>
					<g style="opacity:0.3;">
						<g>
							<g>
								<path style="fill:#FFFFFF;" d="M1114.203,1624.278c-10.656-21.944-29.111-35.43-47.48-42.995
									c-9.076-3.715-18.098-6.039-26.165-7.22c-69.074-10.174-134.096,85.419-147.701,173.994
									c-3.62,23.376-3.641,46.274,0.815,66.618c-11.305-25.1-13.28-56.802-8.236-89.476
									c13.601-88.575,78.623-184.168,147.693-173.994c8.072,1.181,17.09,3.505,26.165,7.22
									C1083.376,1568.357,1107.546,1588.375,1114.203,1624.278"/>
							</g>
						</g>
					</g>
					<g>
						<path style="fill:#0c1222;" d="M970.222,1885.942c-7.144,0-14.338-0.85-21.565-2.559
							c-67.656-15.996-99.043-81.514-81.917-170.977c18.494-96.577,88.54-193.413,169.365-181.553
							c15.823,2.329,55.342,11.567,80.525,46.953c18.647,26.206,24.309,59.463,16.824,98.857
							c-10.176,53.574-48.74,153.101-108.899,192.124C1006.948,1880.209,988.75,1885.942,970.222,1885.942z M1022.949,1571.034
							c-50.41,0-101.814,76.045-115.801,149.111c-4.775,24.941-15.215,107.549,50.977,123.198
							c14.807,3.506,29.224,0.537,44.043-9.072c46.785-30.347,81.304-114.922,90.872-165.283c5.31-27.959,1.97-50.61-9.929-67.329
							c-16.45-23.115-44.722-28.887-52.996-30.103l0,0C1027.732,1571.205,1025.342,1571.034,1022.949,1571.034z"/>
					</g>
					<g>
						<path style="fill:#FFFFFF;" d="M1236.659,1692.985c-1.333-73.394-61.801-151.531-133.813-108.129
							c-61.357,36.977-80.458,114.51-46.361,134.347c40.535,23.581,81.149-35.344,81.149-35.344"/>
					</g>
					<g>
						<path style="fill:#0c1222;" d="M1228.431,1693.134c-2.658-9.158-5.291-17.904-8.475-26.367
							c-3.193-8.442-6.726-16.596-10.717-24.396c-7.821-15.621-18.295-29.674-30.74-39.626
							c-12.466-9.931-26.852-15.086-41.704-13.075c-7.413,0.979-14.909,3.563-22.15,7.434c-7.298,3.933-14.473,9.244-20.854,14.938
							c-12.869,11.47-23.219,25.943-29.736,41.486c-3.295,7.73-5.566,15.765-6.57,23.458c-0.946,7.656-0.551,15.094,1.526,20.233
							c2.11,5.373,4.328,7.339,10.548,10.273c2.682,1.123,5.455,1.707,8.516,1.74c3.053,0.127,6.43-0.333,9.956-1.374
							c14.362-4.098,29.757-16.296,42.827-28.667l0.494-0.469c3.324-3.143,8.561-2.999,11.708,0.321
							c2.485,2.621,2.904,6.451,1.345,9.487c-5.04,9.779-11.034,18.118-18.455,26.141c-7.389,7.903-16.168,15.214-27.379,20.356
							c-5.612,2.505-11.869,4.427-18.62,5.143c-6.731,0.65-13.873-0.025-20.488-2.024c-3.279-1.024-6.504-2.242-9.479-3.777
							c-2.97-1.399-6.475-3.719-9.294-6.151c-5.846-4.986-10.207-11.363-13.025-17.801c-2.814-6.484-4.225-13.042-4.846-19.332
							c-0.642-6.311-0.44-12.42,0.288-18.307c1.419-11.778,4.83-22.734,9.355-32.97c9.162-20.447,22.845-38.145,39.322-52.664
							c8.323-7.282,17.184-13.469,27.07-19.002c9.952-5.534,21.167-9.8,33.192-11.602c11.98-1.868,24.696-1.119,36.45,2.328
							c11.795,3.382,22.495,9.31,31.637,16.526c18.34,14.568,30.645,33.879,38.61,54.046c3.863,10.174,6.43,20.751,7.516,31.452
							c1.09,10.676,0.905,21.488-1.378,31.945c-0.996,4.563-5.5,7.45-10.059,6.455c-3.135-0.683-5.476-3.02-6.315-5.891
							L1228.431,1693.134z"/>
					</g>
					<g>
						<path style="fill:#b0bac8;" d="M2340.553,2019.678c-95.281,69.568-218.825,111.527-353.806,111.527
							c-134.405,0-257.455-41.589-352.613-110.663c1.563-3.332,3.168-6.665,4.772-9.997c0,0,162.915-240.67,348.663-240.67
							c185.789,0,348.622,240.67,348.622,240.67C2337.674,2013.589,2339.113,2016.634,2340.553,2019.678"/>
					</g>
					<g>
						<path style="fill:#FFFFFF;" d="M1973.824,2851.779c-2.81,45.234-4.616,90.422-5.793,134.479
							c-0.276,11.141-0.547,22.236-0.773,33.196c-3.76,193.256,3.534,358.129-10.91,399.788
							c-19.743,56.687-71.004,61.624-71.004,61.624h-175.327c0,0-121.125,6.068-153.321-23.549
							c-32.196-29.567-29.024-71.674-5.521-100.793c20.101-24.997,56.148-35.496,56.148-35.496s-24.363-180.313-49.269-420.346
							c-0.996-9.734-2.036-19.562-3.032-29.477c-7.607-74.176-15.127-153.325-21.965-234.195L1973.824,2851.779z"/>
					</g>
					<g>
						<path style="fill:#b0bac8;" d="M1973.824,2851.779c-2.81,45.234-4.616,90.422-5.793,134.479
							c-0.276,11.141-0.547,22.236-0.773,33.196c-198.876,11.725-332.45-58.411-409.205-118.772
							c-0.996-9.734-2.036-19.562-3.032-29.477c-7.607-74.176-15.127-153.325-21.965-234.195L1973.824,2851.779z"/>
					</g>
					<g>
						<path style="fill:#b0bac8;" d="M1556.672,3457.347c32.18,29.559,153.329,23.528,153.329,23.528h175.302
							c0,0,51.289-4.957,71.024-61.644c2.477-7.097,4.324-17.793,5.685-31.645c-22.458,17.402-45.209,19.591-45.209,19.591h-198.201
							c0,0-136.943,6.805-173.356-26.642c-1.946-1.794-3.789-3.596-5.447-5.492
							C1527.792,3401.729,1530.861,3433.576,1556.672,3457.347"/>
					</g>
					<g>
						<path style="fill:#0c1222;" d="M1682.126,3502.104c-41.628,0-111.553-4.063-139.36-29.634
							c-37.1-34.116-40.31-88.301-7.637-128.838c14.688-18.223,35.244-29.707,49.67-36.069
							c-9.199-70.327-46.013-358.896-72.261-668.794c-0.959-11.323,7.439-21.274,18.76-22.236
							c11.348-0.938,21.274,7.441,22.231,18.76c29.968,353.813,73.745,679.736,74.185,682.988
							c1.36,10.083-4.858,19.648-14.629,22.495c-0.244,0.073-30.208,9.17-45.923,28.672c-16.03,19.888-21.179,50.093,3.45,72.739
							c17.59,16.177,92.979,20.4,138.374,18.149c0.339-0.015,0.681-0.024,1.021-0.024h174.004
							c5.295-0.825,38.906-7.612,52.898-47.837c8.457-24.316,8.472-110.688,8.489-210.698
							c0.017-100.605,0.037-225.806,7.908-351.289c0.71-11.338,10.52-19.937,21.816-19.243c11.34,0.713,19.954,10.483,19.243,21.821
							c-7.791,124.194-7.813,248.687-7.827,348.716c-0.022,127.036-0.51,194.702-10.771,224.209
							c-23.789,68.389-85.857,75.117-88.489,75.366c-0.654,0.063-1.311,0.098-1.968,0.098h-174.8
							C1705.125,3501.713,1694.968,3502.104,1682.126,3502.104z"/>
					</g>
					<g>
						<path style="fill:#0c1222;" d="M1797.402,3154.897c-71.841,0-154.883-9.048-226.235-40.562
							c-10.393-4.595-15.095-16.738-10.505-27.129s16.736-15.088,27.126-10.508c151.968,67.124,371.931,22.026,374.136,21.563
							c11.147-2.314,22.029,4.785,24.363,15.898c2.339,11.118-4.78,22.026-15.896,24.365
							C1965.007,3139.653,1890.642,3154.897,1797.402,3154.897z"/>
					</g>
					<g>
						<path style="fill:#0c1222;" d="M1603.474,3305.036c24.116-4.328,47.854-5.056,71.251-4.254
							c23.405,0.864,46.497,3.39,69.317,7.208c4.492,0.749,7.52,4.999,6.768,9.487c-0.691,4.159-4.39,7.064-8.5,6.875l-0.041-0.004
							c-22.426-1.016-44.88-0.74-66.98,1.111c-22.059,1.88-43.913,5.34-64.104,11.573c-8.697,2.691-17.929-2.185-20.62-10.882
							c-2.687-8.701,2.189-17.937,10.886-20.624c0.617-0.193,1.242-0.346,1.864-0.461L1603.474,3305.036z"/>
					</g>
					<g>
						<path style="fill:#FFFFFF;" d="M2001.324,2851.779c2.81,45.234,4.62,90.422,5.797,134.479
							c0.276,11.141,0.543,22.236,0.773,33.196c3.756,193.256-3.534,358.129,10.91,399.788c19.743,56.687,71,61.624,71,61.624
							h175.327c0,0,121.125,6.068,153.325-23.549c32.192-29.567,29.021-71.674,5.521-100.793
							c-20.101-24.997-56.148-35.496-56.148-35.496s24.363-180.313,49.265-420.346c1-9.734,2.041-19.562,3.036-29.477
							c7.603-74.176,15.123-153.325,21.961-234.195L2001.324,2851.779z"/>
					</g>
					<g>
						<path style="fill:#b0bac8;" d="M2001.324,2851.779c2.81,45.234,4.62,90.422,5.797,134.479
							c0.276,11.141,0.543,22.236,0.773,33.196c198.868,11.725,332.45-58.411,409.201-118.772c1-9.734,2.041-19.562,3.036-29.477
							c7.603-74.176,15.123-153.325,21.961-234.195L2001.324,2851.779z"/>
					</g>
					<g>
						<path style="fill:#b0bac8;" d="M2418.479,3457.347c-32.184,29.559-153.33,23.528-153.33,23.528h-175.302
							c0,0-51.289-4.957-71.024-61.644c-2.481-7.097-4.328-17.793-5.686-31.645c22.458,17.402,45.209,19.591,45.209,19.591h198.201
							c0,0,136.943,6.805,173.352-26.642c1.946-1.794,3.793-3.596,5.451-5.492
							C2447.355,3401.729,2444.29,3433.576,2418.479,3457.347"/>
					</g>
					<g>
						<path style="fill:#0c1222;" d="M2293.02,3502.104c-12.847,0-22.996-0.391-28.384-0.649h-174.8
							c-0.657,0-1.313-0.034-1.968-0.098c-2.632-0.249-64.697-6.978-88.484-75.366c-10.266-29.507-10.754-97.188-10.774-224.253
							c-0.017-100.02-0.037-224.492-7.825-348.672c-0.71-11.338,7.903-21.108,19.243-21.821c11.345-0.669,21.106,7.91,21.816,19.243
							c7.869,125.464,7.888,250.654,7.905,351.245c0.015,100.029,0.029,186.421,8.491,210.742
							c14.065,40.439,47.556,47.041,52.854,47.837h174.043c0.339,0,0.681,0.01,1.021,0.024c45.4,2.256,120.784-1.973,138.374-18.149
							c24.631-22.646,19.485-52.852,3.457-72.734c-15.718-19.507-45.681-28.604-45.981-28.691
							c-9.709-2.891-15.928-12.441-14.573-22.48c0.439-3.252,44.216-329.175,74.18-682.983
							c0.957-11.323,10.938-19.692,22.231-18.765c11.321,0.962,19.719,10.913,18.76,22.231
							c-26.243,309.902-63.057,598.472-72.256,668.799c14.426,6.362,34.985,17.847,49.673,36.074
							c32.673,40.537,29.458,94.722-7.644,128.833C2404.575,3498.036,2334.651,3502.104,2293.02,3502.104z"/>
					</g>
					<g>
						<path style="fill:#0c1222;" d="M2177.747,3154.897c-93.257,0-167.607-15.244-172.991-16.372
							c-11.113-2.339-18.228-13.242-15.894-24.355c2.332-11.113,13.237-18.232,24.353-15.908
							c2.202,0.459,222.427,45.464,374.146-21.563c10.396-4.585,22.539,0.117,27.126,10.508c4.59,10.391-0.112,22.534-10.505,27.129
							C2332.642,3145.849,2249.58,3154.897,2177.747,3154.897z"/>
					</g>
					<g>
						<path style="fill:#0c1222;" d="M2363.964,3337.032c-20.188-6.237-42.045-9.693-64.101-11.573
							c-22.1-1.855-44.555-2.127-66.98-1.111l-0.041,0.004c-4.55,0.206-8.401-3.316-8.611-7.862
							c-0.189-4.213,2.818-7.829,6.875-8.504c22.824-3.814,45.917-6.344,69.317-7.208c23.401-0.802,47.134-0.07,71.255,4.258
							l0.07,0.012c8.96,1.609,14.926,10.178,13.313,19.143c-1.609,8.964-10.178,14.926-19.138,13.317
							C2365.281,3337.394,2364.569,3337.217,2363.964,3337.032"/>
					</g>
					<g>
						<path style="fill:#0c1222;" d="M2293.022,3502.104c-12.849,0-22.998-0.391-28.386-0.649h-174.8
							c-0.657,0-1.313-0.034-1.968-0.098c-2.632-0.249-64.697-6.978-88.484-75.366c-10.264-29.507-10.752-97.183-10.774-224.238
							c-0.017-100.02-0.037-224.502-7.825-348.687c-0.71-11.338,7.903-21.108,19.243-21.821c11.345-0.669,21.106,7.91,21.816,19.243
							c7.869,125.469,7.891,250.664,7.905,351.26c0.017,100.024,0.032,186.406,8.491,210.728
							c14.065,40.439,47.556,47.041,52.854,47.837h174.043c0.339,0,0.681,0.01,1.021,0.024
							c45.388,2.251,120.786-1.978,138.374-18.149c24.631-22.646,19.485-52.852,3.457-72.734
							c-15.718-19.507-45.681-28.604-45.981-28.691c-9.709-2.891-15.928-12.441-14.573-22.48
							c0.439-3.252,44.216-329.175,74.18-682.983c0.957-11.323,10.938-19.692,22.231-18.765
							c11.321,0.962,19.719,10.913,18.76,22.231c-26.243,309.902-63.057,598.472-72.256,668.799
							c14.426,6.362,34.985,17.847,49.673,36.074c32.673,40.537,29.458,94.722-7.644,128.833
							C2404.58,3498.036,2334.651,3502.104,2293.022,3502.104z"/>
					</g>
					<g>
						<path style="fill:#FFFFFF;" d="M2336.23,2010.53c113.95,235.762,165.207,451.501,130.431,619.226
							c-12.408,59.83-33.073,109.083-59.616,149.552c-57.214,87.226-141.753,133.656-229.871,157.316
							c-64.38,17.291-130.665,22.421-189.599,22.421c-45.378,0-95.112-3.044-144.982-12.333
							c-13.988-2.604-27.979-5.702-41.897-9.364c-78.524-20.648-154.407-59.209-210.885-128.403
							c-37.026-45.365-65.709-103.904-81.322-179.19c-34.776-167.725,16.481-383.464,130.431-619.226"/>
					</g>
					<g>
						<path style="fill:#FFFFFF;" d="M2477.349,2513.348c0.407,40.885-3.078,79.787-10.688,116.419
							c-1.72,8.376-3.624,16.522-5.702,24.495c-12.589,48.948-31.065,90.245-53.931,125.066
							c-57.189,87.213-141.732,133.624-229.846,157.308c-64.388,17.295-130.682,22.413-189.59,22.413
							c-45.374,0-95.137-3.032-144.99-12.317c-13.992-2.625-27.988-5.706-41.889-9.376
							c-78.557-20.644-154.407-59.225-210.913-128.411c-33.147-40.618-59.592-91.833-76.031-156.135
							c-1.901-7.516-3.666-15.164-5.295-23.043c-7.607-36.631-11.095-75.533-10.684-116.419
							c1.263-146.442,52.026-318.556,141.135-502.803c0,0,162.882-240.691,348.667-240.691
							c185.781,0,348.614,240.691,348.614,240.691C2425.323,2194.792,2476.077,2366.906,2477.349,2513.348"/>
					</g>
					<g>
						<path style="fill:#c8d0dc;" d="M2341.04,2020.645c-97.795,72.654-218.948,115.645-350.144,115.645
							c-133.376,0-256.386-44.431-355.04-119.307c1.028-2.139,2.057-4.279,3.085-6.418c0,0,162.874-240.711,348.663-240.711
							s348.622,240.711,348.622,240.711C2337.868,2013.939,2339.476,2017.312,2341.04,2020.645"/>
					</g>
					<g>
						<path style="fill:#b0bac8;" d="M1497.786,2513.348h979.56c0.407,40.885-3.077,79.787-10.684,116.419
							c-1.72,8.376-3.625,16.522-5.706,24.495c-149.289-22.142-355.953-49.537-463.86-49.537c-105.5,0-321.49,26.219-483.327,48.085
							L1497.786,2513.348z"/>
					</g>
					<g>
						<path style="fill:#b0bac8;" d="M2466.662,2629.767c-12.408,59.813-33.052,109.083-59.633,149.561
							c-57.189,87.213-137.618,133.624-225.732,157.308c-64.393,17.295-134.796,22.413-193.704,22.413
							c-45.378,0-95.137-3.032-144.99-12.317c-13.996-2.625-32.102-5.706-46.003-9.372
							c-78.561-20.648-150.293-59.229-206.803-128.415c-36.993-45.377-65.701-103.924-81.322-179.178
							c-9.602-46.279-12.634-96.227-9.602-149.248c1.494,25.63,4.665,50.351,9.602,74.126
							c15.621,75.303,44.329,133.804,81.322,179.178c56.51,69.185,132.356,107.767,210.917,128.415
							c13.901,3.666,27.893,6.747,41.889,9.372c49.854,9.285,99.613,12.317,144.99,12.317c58.908,0,125.198-5.118,189.59-22.413
							c88.114-23.639,172.657-70.095,229.846-157.308c26.581-40.478,47.225-89.747,59.633-149.561
							c4.933-23.775,8.109-48.496,9.598-74.126C2479.296,2533.54,2476.26,2583.488,2466.662,2629.767"/>
					</g>
					<g>
						<path style="fill:#0c1222;" d="M2179.307,2944.573c-30.205,11.602-61.908,19.044-93.849,23.857
							c-15.967,2.551-32.056,4.024-48.142,5.311c-16.094,1.131-32.213,1.547-48.307,1.74c-16.09-0.094-32.204-0.522-48.303-1.534
							c-16.082-1.267-32.18-2.613-48.159-5.138c-15.995-2.283-31.884-5.41-47.603-9.203c-15.637-4.237-31.118-9.096-46.336-14.296
							c-4.303-1.473-6.603-6.151-5.13-10.454c1.259-3.686,4.871-5.899,8.586-5.537l0.728,0.078
							c15.728,1.53,31.048,4.139,46.476,6.031c15.456,1.814,30.954,3.106,46.447,4.221c15.514,0.93,31.011,1.963,46.567,2.267
							c15.534,0.564,31.102,0.794,46.682,0.675c15.584,0.136,31.143-0.243,46.678-0.769c15.547-0.383,31.044-1.44,46.554-2.427
							c30.999-2.271,61.842-5.924,92.845-10.713l0.041-0.004c4.513-0.699,8.738,2.398,9.438,6.912
							C2185.125,2939.509,2182.866,2943.208,2179.307,2944.573"/>
					</g>
					<g>
						<path style="fill:#0c1222;" d="M2389.283,2108.367c26.988,55.091,49.693,112.44,67.569,171.53
							c2.37,7.344,4.192,14.86,6.307,22.282c1.983,7.471,4.229,14.864,5.998,22.397c3.567,15.057,7.298,30.073,10.137,45.324
							c1.44,7.623,3.221,15.168,4.377,22.853l3.752,22.998c1.337,7.656,2.012,15.432,2.983,23.149
							c0.934,7.73,1.884,15.457,2.357,23.249c3.044,31.04,3.234,62.467,1.341,93.8c-0.646,7.833-0.958,15.678-1.88,23.503
							l-2.966,23.438c-2.793,15.53-5.521,31.11-9.47,46.32c-7.693,30.489-17.941,60.608-32.525,88.74
							c-14.531,28.074-32.842,54.424-55.552,76.204c-3.3,3.172-8.545,3.073-11.721-0.226c-2.695-2.806-3.015-7.031-1.028-10.182
							c32.003-50.541,54.461-104.883,67.61-162.467c12.897-57.457,14.852-116.97,10.647-176.294
							c-4.353-59.365-15.456-118.508-30.333-176.783c-14.946-58.312-33.196-115.982-52.799-173.517l-0.008-0.029
							c-1.473-4.312,0.835-8.993,5.143-10.462C2383.194,2102.833,2387.485,2104.689,2389.283,2108.367"/>
					</g>
					<g>
						<path style="fill:#0c1222;" d="M1601.063,2114.682c-19.607,57.531-37.853,115.205-52.799,173.517
							c-14.876,58.275-25.98,117.418-30.333,176.779c-4.204,59.324-2.25,118.842,10.647,176.298
							c13.144,57.584,35.607,111.926,67.606,162.467c2.452,3.871,1.3,8.989-2.567,11.437c-3.283,2.078-7.492,1.543-10.178-1.029
							c-22.713-21.78-41.021-48.13-55.552-76.204c-14.584-28.132-24.832-58.25-32.526-88.74c-3.949-15.213-6.677-30.793-9.47-46.32
							l-2.97-23.438c-0.922-7.825-1.234-15.67-1.876-23.503c-1.897-31.333-1.703-62.759,1.337-93.8
							c0.477-7.796,1.428-15.518,2.362-23.249c0.971-7.718,1.646-15.493,2.979-23.149l3.752-22.997
							c1.16-7.685,2.937-15.23,4.381-22.854c2.835-15.251,6.566-30.267,10.137-45.324c1.765-7.533,4.011-14.926,5.998-22.397
							c2.11-7.422,3.937-14.942,6.307-22.281c17.875-59.09,40.581-116.443,67.569-171.53c2.004-4.089,6.94-5.776,11.03-3.777
							c3.768,1.847,5.5,6.191,4.176,10.059L1601.063,2114.682z"/>
					</g>
					<g>
						<path style="fill:#b0bac8;" d="M2222.577,2758.968h-473.655c-29.296,0-53.264-23.968-53.264-53.26v-306.054
							c0-29.292,23.968-53.26,53.264-53.26h473.655c29.296,0,53.264,23.968,53.264,53.26v306.054
							C2275.841,2735,2251.873,2758.968,2222.577,2758.968"/>
					</g>
					<g>
						<path style="fill:#FFFFFF;" d="M2245.396,2465.033c0,0,154.958-11.815,220.187,35.15
							c69.317,49.907-0.519,107.648-0.519,107.648s-124.803-27.243-229.612-23.36L2245.396,2465.033z"/>
					</g>
					<g>
						<path style="fill:#b0bac8;" d="M2465.079,2607.85c0,0-124.844-27.259-229.62-23.367l3.76-45.369
							c72.839-2.222,154.481,10.186,196.835,17.81c22.516,4.052,45.345-7.282,54.7-28.165c0.091-0.198,0.181-0.399,0.271-0.605
							C2511.534,2569.405,2465.079,2607.85,2465.079,2607.85"/>
					</g>
					<g>
						<path style="fill:#FFFFFF;" d="M1742.635,2465.033c0,0-154.963-11.815-220.186,35.15
							c-69.317,49.907,0.514,107.648,0.514,107.648s124.807-27.243,229.612-23.36L1742.635,2465.033z"/>
					</g>
					<g>
						<path style="fill:#b0bac8;" d="M1528.915,2607.85c0,0,124.844-27.259,229.62-23.367l-3.756-45.369
							c-72.843-2.222-154.486,10.186-196.839,17.81c-22.516,4.052-45.345-7.282-54.7-28.165c-0.09-0.198-0.181-0.399-0.271-0.605
							C1482.459,2569.405,1528.915,2607.85,1528.915,2607.85"/>
					</g>
					<g>
						<path style="fill:#0c1222;" d="M2470.459,2630.063l-9.78-2.134c-1.226-0.269-123.567-26.655-224.465-22.9l-23.186,0.859
							l13.323-160.034l17.48-1.333c6.633-0.503,163.259-11.802,233.772,38.97c25.183,18.135,38.367,39.741,39.185,64.224
							c1.394,41.655-34.517,72.583-38.616,75.972L2470.459,2630.063z M2257.837,2563.52c83.042,0.132,170.476,15.952,200.73,21.968
							c7.793-8.594,17.62-22.734,17.1-36.519c-0.415-11.035-7.852-21.831-22.102-32.09c-42.71-30.757-138.906-34.077-189.158-32.266
							L2257.837,2563.52z"/>
					</g>
					<g>
						<path style="fill:#0c1222;" d="M1517.568,2630.058l-7.715-6.372c-4.099-3.389-40.005-34.316-38.611-75.972
							c0.818-24.482,14.004-46.089,39.187-64.224c70.503-50.771,227.129-39.478,233.77-38.97l17.48,1.333l13.318,160.034
							l-23.186-0.859c-100.894-3.774-223.24,22.632-224.465,22.9L1517.568,2630.058z M1700.969,2484.223
							c-52.637,0-129.568,6.06-166.499,32.656c-14.302,10.293-21.741,21.133-22.109,32.212
							c-0.461,13.774,9.399,27.915,17.083,36.401c30.237-6.011,117.698-21.841,200.745-21.973l-6.565-78.906
							C1716.826,2484.369,1709.197,2484.223,1700.969,2484.223z"/>
					</g>
					<g>
						<path style="fill:#FFFFFF;" d="M2255.413,2418.863v220.655c0,40.947-32.258,74.447-71.646,74.447h-391.264
							c-39.429,0-71.646-33.5-71.646-74.447v-220.655c0-40.902,32.217-74.402,71.646-74.402h391.264
							c31.464,0,58.399,21.389,67.947,50.866C2254.092,2402.732,2255.413,2410.639,2255.413,2418.863"/>
					</g>
					<g>
						<path style="fill:#b0bac8;" d="M2255.413,2418.863v220.655c0,40.947-32.258,74.447-71.646,74.447h-391.264
							c-39.429,0-71.646-33.5-71.646-74.447v-74.27c67.507,38.803,201.241,97.074,335.465,48.994
							c65.569-23.508,140.745-104.06,140.745-104.06s2.896,84.522,14.975,83.189c33.571-3.711,33.324-174.726,39.672-198.045
							C2254.092,2402.732,2255.413,2410.639,2255.413,2418.863"/>
					</g>
					<g>
						<path style="fill:#0c1222;" d="M2192.742,2734.516h-409.246c-45.891,0-83.228-37.339-83.228-83.232v-244.16
							c0-45.898,37.336-83.237,83.228-83.237h409.246c45.894,0,83.232,37.339,83.232,83.237v244.16
							C2275.974,2697.177,2238.635,2734.516,2192.742,2734.516z M1783.496,2365.029c-23.206,0-42.087,18.882-42.087,42.095v244.16
							c0,23.208,18.882,42.09,42.087,42.09h409.246c23.208,0,42.09-18.882,42.09-42.09v-244.16c0-23.213-18.882-42.095-42.09-42.095
							H1783.496z"/>
					</g>
					<g>
						<path style="fill:#ffd966;" d="M2188.52,2529.202c0,35.438-27.663,64.17-61.789,64.17c-34.117,0-61.784-28.732-61.784-64.17
							c0-35.438,27.667-64.17,61.784-64.17C2160.857,2465.031,2188.52,2493.764,2188.52,2529.202"/>
					</g>
					<g style="opacity:0.5;">
						<path style="fill:#FFFFFF;" d="M2188.536,2529.222c0,4.369-0.408,8.619-1.214,12.737
							c-5.71-29.386-30.682-51.499-60.595-51.499c-29.917,0-54.893,22.113-60.558,51.499c-0.811-4.118-1.214-8.368-1.214-12.737
							c0-35.438,27.646-64.195,61.772-64.195C2160.853,2465.027,2188.536,2493.784,2188.536,2529.222"/>
					</g>
					<g>
						<path style="fill:#e6b84d;" d="M2188.52,2529.19c0,35.467-27.683,64.166-61.789,64.166c-34.105,0-61.78-28.699-61.78-64.166
							c0-5.941,0.79-11.746,2.242-17.184c7.257,27.054,31.201,46.937,59.538,46.937c28.342,0,52.281-19.883,59.542-46.937
							C2187.73,2517.444,2188.52,2523.249,2188.52,2529.19"/>
					</g>
					<g>
						<path style="fill:#0c1222;" d="M2126.731,2608.803c-42.576,0-77.212-35.708-77.212-79.6s34.636-79.6,77.212-79.6
							c42.578,0,77.217,35.708,77.217,79.6S2169.309,2608.803,2126.731,2608.803z M2126.731,2480.463
							c-25.562,0-46.357,21.865-46.357,48.74s20.796,48.74,46.357,48.74c25.564,0,46.362-21.865,46.362-48.74
							S2152.295,2480.463,2126.731,2480.463z"/>
					</g>
					<g>
						<path style="fill:#0c1222;" d="M1931.174,2734.516c-11.36,0-20.571-9.209-20.571-20.571v-112.939
							c0-21.523-9.814-42.046-26.255-54.897l-9.937-7.769c-26.335-20.586-42.061-53.228-42.061-87.314v-106.563
							c0-11.362,9.211-20.571,20.571-20.571s20.571,9.209,20.571,20.571v106.563c0,21.528,9.814,42.051,26.255,54.902l9.937,7.769
							c26.335,20.586,42.061,53.223,42.061,87.31v112.939C1951.746,2725.307,1942.534,2734.516,1931.174,2734.516z"/>
					</g>
					<g>
						<polygon style="fill:#b0bac8;" points="1987.789,1442.125 1987.789,1444.787 1986.094,1443.482 						"/>
					</g>
					<g>
						<polygon style="fill:#b0bac8;" points="1986.093,1443.481 1984.398,1444.789 1984.398,1442.123 						"/>
					</g>
					<g>
						<path style="fill:#FFFFFF;" d="M2707.573,1311.937c0,396.295-321.26,717.555-717.555,717.555s-717.555-321.26-717.555-717.555
							s321.26-717.555,717.555-717.555S2707.573,915.641,2707.573,1311.937"/>
					</g>
					<g>
						<path style="fill:#c8d0dc;" d="M2707.589,1311.918c0,396.299-321.255,717.555-717.551,717.555
							c-396.299,0-717.596-321.256-717.596-717.555c0-41.839,3.571-82.868,10.495-122.721
							c58.213,337.81,352.645,594.788,707.101,594.788s648.838-256.978,707.056-594.788
							C2704.014,1229.05,2707.589,1270.079,2707.589,1311.918"/>
					</g>
					<g>
						<path style="fill:#0c1222;" d="M1990.017,2050.063c-407.002,0-738.123-331.123-738.123-738.125
							c0-407.004,331.121-738.125,738.123-738.125c407.004,0,738.127,331.121,738.127,738.125
							C2728.145,1718.94,2397.021,2050.063,1990.017,2050.063z M1990.017,614.951c-384.319,0-696.985,312.668-696.985,696.987
							c0,384.316,312.666,696.982,696.985,696.982s696.985-312.666,696.985-696.982
							C2687.002,927.619,2374.336,614.951,1990.017,614.951z"/>
					</g>
					<g>
						<path style="fill:#0c1222;" d="M2682.573,1144.325c-8.003,0-15.562-4.702-18.894-12.437
							c-112.82-261.929-377.251-431.174-673.665-431.174c-296.218,0-560.598,169.097-673.538,430.789
							c-4.277,9.907-15.486,14.824-25.671,11.27c-10.188-3.559-15.894-14.39-13.069-24.805
							c86.926-320.4,379.824-544.175,712.278-544.175c332.664,0,625.618,223.94,712.412,544.58c2.82,10.42-2.891,21.245-13.083,24.8
							C2687.107,1143.954,2684.822,1144.325,2682.573,1144.325z M1990.015,659.577c206.348,0,398.057,77.849,538.926,210.349
							c-129.509-157.439-325.571-254.99-538.926-254.99c-213.237,0-409.258,97.505-538.774,254.851
							C1592.117,737.382,1783.787,659.577,1990.015,659.577z"/>
					</g>
					<g>
						<path style="fill:#0c1222;" d="M2707.529,1311.953c0,62.109-7.87,122.441-22.693,179.894c0,0-0.066,0-0.066,0.066
							c-124.478,240.493-388.841,447.42-694.784,447.42c-305.947,0-570.244-206.927-694.722-447.42c0-0.066-0.066-0.066-0.066-0.066
							c-14.885-57.453-22.759-117.784-22.759-179.894c0-27.152,1.51-53.976,4.53-80.338
							c96.799-267.843,379.395-461.638,713.017-461.638c333.684,0,616.346,193.927,713.083,461.836
							C2706.019,1258.109,2707.529,1284.866,2707.529,1311.953"/>
					</g>
					<g style="opacity:0.35;">
						<g>
							<g>
								<path style="fill:#080e1a;" d="M2707.557,1311.971c0,62.109-7.87,122.446-22.693,179.894c0,0-0.062,0-0.062,0.066
									c-124.478,240.493-388.845,447.407-694.788,447.407s-570.24-206.915-694.718-447.407c0-0.066-0.066-0.066-0.066-0.066
									c-8.853-34.233-15.218-69.453-18.953-105.521c160.871,180.745,394.81,312.238,655.236,312.238
									c331.787,0,620.744-213.402,770.276-470.228c0.457,1.181,0.913,2.296,1.308,3.476
									C2706.051,1258.127,2707.557,1284.888,2707.557,1311.971"/>
							</g>
						</g>
					</g>
					<g style="opacity:0.5;">
						<g>
							<g>
								<path style="fill:#FFFFFF;" d="M2407.927,1301.256c-10.349,64.538,19.169,122.933,65.934,130.432
									c46.765,7.5,93.064-38.739,103.414-103.277c10.349-64.535-19.169-122.933-65.934-130.432
									C2464.576,1190.48,2418.277,1236.718,2407.927,1301.256"/>
							</g>
						</g>
					</g>
					<g style="opacity:0.5;">
						<g>
							<g>
								<path style="fill:#FFFFFF;" d="M2347.752,1537.676c-8.795,28.682,4.022,58.052,28.635,65.602
									c24.616,7.55,51.699-9.581,60.498-38.262c8.794-28.682-4.022-58.052-28.635-65.602
									C2383.633,1491.864,2356.546,1508.995,2347.752,1537.676"/>
							</g>
						</g>
					</g>
					<g style="opacity:0.5;">
						<g>
							<g>
								<path style="fill:#FFFFFF;" d="M1443.089,1548.581c0,0-117.107-348.17,68.909-491.629
									c186.016-143.455,457.717-148.395,451.714-130.843c0,0-299.303,78.909-412.173,319.076
									C1464.5,1430.383,1443.089,1548.581,1443.089,1548.581"/>
							</g>
						</g>
					</g>
					<g>
						<path style="fill:#0c1222;" d="M1241.99,2178.808c-1.018,0-2.046-0.073-3.081-0.229
							c-11.235-1.685-18.975-12.163-17.288-23.394c35.715-237.905,192.471-338.149,199.126-342.305
							c9.644-6.006,22.332-3.067,28.34,6.572c6.003,9.624,3.081,22.29-6.528,28.311l0,0c-1.472,0.928-147.476,95.2-180.254,313.525
							C1260.774,2171.489,1252,2178.808,1241.99,2178.808z"/>
					</g>
				</g>
			</g>
		</g>
	</g>
</g>
</svg>
